<svg width="64" height="64" viewBox="0 0 64 64" fill="none" xmlns="http://www.w3.org/2000/svg">
<path fill-rule="evenodd" clip-rule="evenodd" d="M31.809 11L26.6478 21.8378L15.5725 17.9117C16.9372 21.7943 18.3006 25.6764 19.6627 29.5581L21.7393 30.4743L14 34.9232L21.6765 39.2427L23.703 38.4158L23.3488 40L29.0744 38.4303L30.0108 35.8421L31.6192 35.1859L33.2991 35.8506C33.5693 36.6011 33.8392 37.3517 34.1086 38.1023L39.6419 39.9346L39.3341 38.2385L41.3734 39.0454L50 34.7272L41.8195 30.4743L44.0218 29.6888L48.5532 17.5837L42.8845 19.7984C43.2986 20.0343 43.7619 20.2205 44.2713 20.3605C42.339 20.8926 41.0736 22.0864 40.6317 24.1376C40.3657 22.9069 39.8029 21.983 38.9746 21.3259L37.1624 22.0339L31.809 11ZM41.5893 28.5116C39.1383 27.8186 37.5347 26.2338 36.9909 23.5414H36.9906C36.4468 26.2383 34.8391 27.8223 32.3939 28.512C34.8433 29.2073 36.4465 30.7887 36.9916 33.4793C37.5358 30.7857 39.1438 29.1998 41.5893 28.5116ZM32.4059 20.3612C32.0726 21.7506 31.1579 22.5613 29.7124 22.9409L29.712 22.9413C30.4238 23.0965 30.9983 23.3898 31.4806 23.8459C31.9611 24.3005 32.2652 24.8451 32.3987 25.5289C32.7461 24.1156 33.6592 23.3046 35.076 22.9347C33.6543 22.5646 32.737 21.7491 32.4059 20.3612Z" fill="#3D3D3D"/>
<path d="M18.7955 47.58H15.8855L15.3855 49H14.1955L16.6855 42.04H18.0055L20.4955 49H19.2955L18.7955 47.58ZM18.4755 46.65L17.3455 43.42L16.2055 46.65H18.4755ZM26.5681 43.49V49H25.4281V48.35C25.2481 48.5767 25.0115 48.7567 24.7181 48.89C24.4315 49.0167 24.1248 49.08 23.7981 49.08C23.3648 49.08 22.9748 48.99 22.6281 48.81C22.2881 48.63 22.0181 48.3633 21.8181 48.01C21.6248 47.6567 21.5281 47.23 21.5281 46.73V43.49H22.6581V46.56C22.6581 47.0533 22.7815 47.4333 23.0281 47.7C23.2748 47.96 23.6115 48.09 24.0381 48.09C24.4648 48.09 24.8015 47.96 25.0481 47.7C25.3015 47.4333 25.4281 47.0533 25.4281 46.56V43.49H26.5681ZM29.2123 44.29C29.3789 44.01 29.5989 43.7933 29.8723 43.64C30.1523 43.48 30.4823 43.4 30.8623 43.4V44.58H30.5723C30.1256 44.58 29.7856 44.6933 29.5523 44.92C29.3256 45.1467 29.2123 45.54 29.2123 46.1V49H28.0723V43.49H29.2123V44.29ZM31.5302 46.22C31.5302 45.6667 31.6435 45.1767 31.8702 44.75C32.1035 44.3233 32.4168 43.9933 32.8102 43.76C33.2102 43.52 33.6502 43.4 34.1302 43.4C34.5635 43.4 34.9402 43.4867 35.2602 43.66C35.5868 43.8267 35.8468 44.0367 36.0402 44.29V43.49H37.1902V49H36.0402V48.18C35.8468 48.44 35.5835 48.6567 35.2502 48.83C34.9168 49.0033 34.5368 49.09 34.1102 49.09C33.6368 49.09 33.2035 48.97 32.8102 48.73C32.4168 48.4833 32.1035 48.1433 31.8702 47.71C31.6435 47.27 31.5302 46.7733 31.5302 46.22ZM36.0402 46.24C36.0402 45.86 35.9602 45.53 35.8002 45.25C35.6468 44.97 35.4435 44.7567 35.1902 44.61C34.9368 44.4633 34.6635 44.39 34.3702 44.39C34.0768 44.39 33.8035 44.4633 33.5502 44.61C33.2968 44.75 33.0902 44.96 32.9302 45.24C32.7768 45.5133 32.7002 45.84 32.7002 46.22C32.7002 46.6 32.7768 46.9333 32.9302 47.22C33.0902 47.5067 33.2968 47.7267 33.5502 47.88C33.8102 48.0267 34.0835 48.1 34.3702 48.1C34.6635 48.1 34.9368 48.0267 35.1902 47.88C35.4435 47.7333 35.6468 47.52 35.8002 47.24C35.9602 46.9533 36.0402 46.62 36.0402 46.24ZM45.4752 47.58H42.5652L42.0652 49H40.8752L43.3652 42.04H44.6852L47.1752 49H45.9752L45.4752 47.58ZM45.1552 46.65L44.0252 43.42L42.8852 46.65H45.1552ZM49.3978 42.05V49H48.2578V42.05H49.3978Z" fill="#3D3D3D"/>
</svg>
